<?xml version="1.0" encoding="utf-8"?>
<!-- Generator: Adobe Illustrator 23.0.3, SVG Export Plug-In . SVG Version: 6.00 Build 0)  -->
<svg version="1.1" id="Capa_1" xmlns="http://www.w3.org/2000/svg" xmlns:xlink="http://www.w3.org/1999/xlink" x="0px" y="0px"
	 viewBox="0 0 480.1 480.1" style="enable-background:new 0 0 480.1 480.1;" xml:space="preserve">
<path d="M254.4,226.8v-82.5c8.2,3.1,15.4,8.7,20.4,16.2c4.4,6.7,13.4,8.6,20.1,4.1c6.7-4.4,8.6-13.4,4.1-20.1
	c-10.4-15.8-26.5-26.6-44.6-30.4V91.1c0-8-6.5-14.5-14.5-14.5c-8,0-14.5,6.5-14.5,14.5v23c-32.2,6.7-56.4,35.3-56.4,69.4
	c0,34.1,24.2,62.7,56.4,69.4v82.5c-8.2-3-15.4-8.6-20.4-16.2c-4.4-6.7-13.4-8.6-20.1-4.2c-6.7,4.4-8.6,13.4-4.2,20.1
	c10.4,15.8,26.5,26.6,44.7,30.4v23.1c0,8,6.5,14.5,14.5,14.5c8,0,14.5-6.5,14.5-14.5v-23c32.2-6.7,56.4-35.3,56.4-69.4
	S286.6,233.6,254.4,226.8z M225.4,222.7c-15.9-5.9-27.3-21.2-27.3-39.2c0-18,11.4-33.3,27.3-39.2V222.7z M254.4,335.4v-78.3
	c15.9,5.9,27.3,21.2,27.3,39.2C281.7,314.2,270.3,329.5,254.4,335.4z"/>
<path d="M30.3,323.4c-1.5,0.5-3,0.7-4.6,0.7c-6.3,0-11.9-4-13.8-10C-20,216.5,13.7,109.6,95.9,48C117,32.2,140.2,20.1,165,12
	c24-7.9,49-11.8,74.3-11.8h0c36.4,0,72.9,8.4,105.6,24.4c28.4,13.9,53.3,32.8,74,56.4V37.9c0-8,6.5-14.5,14.5-14.5h0
	c8,0,14.5,6.5,14.5,14.5v94.7c0,2.8-2.3,5.1-5.1,5.1H340.4c-8,0-14.5-6.5-14.5-14.5v0c0-8,6.5-14.5,14.5-14.5h63.9
	c-39.7-50-100.4-79.5-164.8-79.5c-56.2,0-109,21.9-148.8,61.6C51,130.5,29.2,183.4,29.2,239.6c0,22.3,3.5,44.3,10.4,65.5
	C42,312.7,37.9,320.9,30.3,323.4z"/>
<path d="M383.8,431.9c-21.2,15.9-44.5,28-69.4,36.2c-24.1,7.9-49.2,11.9-74.6,11.9c-36.6,0-73.2-8.5-106-24.5
	c-27.8-13.6-52.1-31.9-72.6-54.8v40.5c0,8.6-6.9,15.5-15.5,15.5h0c-8.6,0-15.5-6.9-15.5-15.5v-94.6c0-3.5,2.8-6.3,6.3-6.3h102.3
	c8.6,0,15.5,6.9,15.5,15.5v0c0,8.6-6.9,15.5-15.5,15.5H76.8c39.6,48.9,99.4,77.6,162.8,77.6c22.1,0,44.1-3.5,65.2-10.4
	c53.2-17.4,96.4-54.5,121.7-104.4c25.3-49.9,29.6-106.7,12.2-159.9l0-0.1l0-0.1c-2.3-7.9,1.9-16.2,9.6-19c1.7-0.6,3.5-0.9,5.2-0.9
	c6.5,0,12.4,4.1,14.6,10.3l0,0.1l0,0.1C500.2,262.7,466.3,370.1,383.8,431.9z"/>
</svg>
